<svg width="318" height="37" viewBox="0 0 318 37" fill="none" xmlns="http://www.w3.org/2000/svg">
<path d="M207.93 35.8539L231.05 1.80176H237.12L243.27 35.8539H237.3L235.82 27.4461H220.21L214.55 35.8539H207.92H207.93ZM223.73 22.1565H234.95L232.57 9.09045L223.73 22.1565Z" fill="#00C3FF"/>
<path d="M245.06 26.7287L248.63 9.99914H254.65L251.18 26.4896C250.52 29.6078 251.99 31.5591 255.41 31.5591C259.24 31.5591 261.84 29.0244 262.7 25.8009L266.07 9.98958H272.14L266.63 35.8444H261.89L262.14 32.0374C260.25 34.9165 257.09 36.5713 253.37 36.5713C247.09 36.5713 243.83 32.5252 245.06 26.7191V26.7287Z" fill="#00C3FF"/>
<path d="M289.46 25.9539C289.46 16.8287 295.99 9.2148 306.04 9.2148C313.08 9.2148 317.05 13.4139 317.05 19.7078C317.05 28.8809 310.78 36.5904 300.63 36.5904C293.54 36.5904 289.46 32.4965 289.46 25.9539ZM311.09 20.4348C311.09 16.4365 308.85 14.1409 304.92 14.1409C299.06 14.1409 295.43 19.507 295.43 25.1218C295.43 29.6078 298.08 31.6644 301.65 31.6644C307.41 31.6644 311.09 26.2505 311.09 20.4444V20.4348Z" fill="#00C3FF"/>
<path d="M273 27.9531C271.88 33.08 274.43 35.8539 280.5 35.8539H283.81L284.83 30.9757H281.82C279.37 30.9757 278.61 30.2487 279.12 27.6565L281.87 14.8774H288.76L289.83 9.99915H282.89L284.64 1.80176H278.52L273 27.9531Z" fill="#00C3FF"/>
<path d="M0 25.1217H8.11C8.72 28.1922 11.48 30.0956 16.63 30.0956C20.46 30.0956 22.5 28.833 22.5 26.633C22.5 24.6817 21.33 23.8496 17.76 22.8739L12.3 21.3626C6.83 19.8513 0.97 17.8043 0.97 11.1183C0.97 5.35999 5.92 0.82608 14.33 0.82608C23.36 0.82608 29.38 5.75217 29.73 12.8783H21.67C21.52 9.99912 19.17 7.51217 14.12 7.51217C10.75 7.51217 8.82 8.73652 8.82 10.6783C8.82 12.8783 10.91 13.6052 14.84 14.7722L19.89 16.2835C25.45 17.9478 30.55 19.7461 30.55 26.1835C30.55 32.6209 25.09 36.7243 16.68 36.7243C6.89 36.7339 0.51 32.2956 0 25.1217Z" fill="#003469"/>
<path d="M31.43 28.8809C31.53 22.7304 38.06 21.3148 43.21 20.6835C47.19 20.1957 49.69 19.8513 49.69 17.8522C49.69 16.0922 48.41 15.0209 45.51 15.0209C42.3 15.0209 40.31 16.6278 40 18.9713H32.04C32.65 13.1174 38.11 9.0713 45.61 9.0713C53.52 9.0713 57.34 12.8783 57.34 18.3878V29.2252C57.34 29.9043 57.7 30.2487 58.62 30.2487H60V35.8539H56.69C54.14 35.8539 52.25 35.0217 51.33 33.5104C51.13 33.2235 50.97 32.8791 50.87 32.5348C49.29 35.0696 46.43 36.533 41.94 36.533C35.61 36.533 31.33 33.8452 31.43 28.8713V28.8809ZM49.69 26.9296V23.027C48.87 24.5383 46.68 24.9304 44.23 25.2748C41.22 25.7148 39.33 26.107 39.33 28.2496C39.33 30.0574 40.61 30.9852 43.77 30.9852C46.93 30.9852 49.69 29.5696 49.69 26.9391V26.9296Z" fill="#003469"/>
<path d="M68.5 35.8539L57.23 9.99916H65.7L72.53 27.0252L79.36 9.99916H87.88L76.61 35.8539H68.5Z" fill="#003469"/>
<path d="M86.37 23.027C86.37 14.7817 92.13 9.0713 100.35 9.0713C108.57 9.0713 113.66 14.4852 113.81 22.9791V24.6339H94.12C94.68 28.1539 97.28 30.5357 100.96 30.5357C103.46 30.5357 105.35 29.4643 106.11 27.6087H113.71C112.18 33.4148 107.44 36.7339 100.86 36.7339C92.34 36.7339 86.37 31.1287 86.37 23.027ZM105.8 19.8513C105.04 16.9722 103.1 15.3174 100.34 15.3174C97.58 15.3174 95.34 17.0774 94.42 19.8513H105.8Z" fill="#003469"/>
<path d="M116.33 35.8539V1.70607H126.07L135.81 26.7287L145.5 1.70607H155.24V35.8539H147.28V14.7817L139.07 35.8635H132.49L124.28 14.7817V35.8635H116.33V35.8539Z" fill="#003469"/>
<path d="M208.97 29.6843L203.89 22.8739L213.38 9.99911H204.66L199.51 17.2687L194.36 9.99911H185.64L195.13 22.8739C191.35 27.6374 188.25 29.6461 186.21 30.0478C184.4 30.4113 183.79 29.6748 183.79 28.4791V18.3782C183.79 12.8687 179.96 9.06172 172.06 9.06172C164.56 9.06172 159.11 13.1078 158.5 18.9617H166.46C166.76 16.6182 168.75 15.0113 171.97 15.0113C174.88 15.0113 176.15 16.0826 176.15 17.8426C176.15 19.8417 173.65 20.1861 169.67 20.6739C164.52 21.3052 157.99 22.7209 157.89 28.8713C157.79 33.8452 162.07 36.533 168.4 36.533C172.89 36.533 175.75 35.0695 177.32 32.5348C178.18 35.4043 179.88 36.7339 183.62 36.7339C187.65 36.7339 192.74 36.3417 199.53 27.953L204.82 35.8443L209 29.6939L208.97 29.6843ZM176.13 26.9295C176.13 29.56 173.38 30.9756 170.21 30.9756C167.04 30.9756 165.77 30.0478 165.77 28.24C165.77 26.0974 167.66 25.7052 170.67 25.2652C173.12 24.9209 175.31 24.5382 176.13 23.0174V26.92V26.9295Z" fill="#003469"/>
</svg>
